<svg id="GROUND" xmlns="http://www.w3.org/2000/svg" viewBox="0 0 500 500"><defs><style>.cls-1{fill:#9ab3da;}.cls-2{fill:#404b7c;}.cls-3{fill:#e9f3ff;}.cls-4{fill:#ecbdbb;}.cls-5{fill:#f68d88;}.cls-6{fill:#fff;}</style></defs><title>Ideation Session Whiteboarding</title><path class="cls-1" d="M106.86,437H16.35a0.5,0.5,0,0,1,0-1h90.51A0.5,0.5,0,0,1,106.86,437Z"/><path class="cls-1" d="M192.17,437H130.8a0.5,0.5,0,0,1,0-1h61.36A0.5,0.5,0,1,1,192.17,437Z"/><path class="cls-1" d="M357.72,437H296.35a0.5,0.5,0,0,1,0-1h61.36A0.5,0.5,0,1,1,357.72,437Z"/><path class="cls-1" d="M401.62,448.67H340.26a0.5,0.5,0,0,1,0-1h61.36A0.5,0.5,0,0,1,401.62,448.67Z"/><path class="cls-1" d="M154.91,448.67H93.55a0.5,0.5,0,1,1,0-1h61.36A0.5,0.5,0,1,1,154.91,448.67Z"/><path class="cls-1" d="M433.51,437H388.19a0.5,0.5,0,0,1,0-1h45.33A0.5,0.5,0,1,1,433.51,437Z"/><path class="cls-1" d="M265.55,270.55c-58.45,0-99.89-5.07-107.6-6.08l-6.32-.83-0.52-6.35c-1.41-17.36-3.09-45-3.09-78.18s1.68-60.82,3.09-78.18l0.52-6.35,6.32-.83c7.71-1,49.15-6.08,107.6-6.08s99.89,5.07,107.6,6.08l6.32,0.83,0.52,6.35c1.41,17.36,3.09,45,3.09,78.18s-1.68,60.82-3.09,78.18l-0.52,6.35-6.32.83C365.44,265.48,324,270.55,265.55,270.55Z"/><path class="cls-2" d="M265.55,98.26h27.6a113.76,113.76,0,0,0-3.45-13.15s-11.34-.66-24.15-0.66-24.15.66-24.15,0.66a113.76,113.76,0,0,0-3.45,13.15h27.6Z"/><path class="cls-3" d="M372.13,256.65c-7.27,1-48.72,6-106.57,6s-99.31-5.06-106.57-6c-1.54-18.93-3.07-45.76-3.07-77.54s1.53-58.61,3.07-77.54c7.27-1,48.72-6,106.57-6s99.31,5.06,106.57,6c1.54,18.93,3.07,45.76,3.07,77.54S373.66,237.72,372.13,256.65Z"/><path class="cls-1" d="M269,130s-1.63,14.69,5,21.36H249.51c-6.67-6.67-5-21.36-5-21.36H269Z"/><rect class="cls-2" x="254.72" y="125.25" width="4.03" height="6.75"/><path class="cls-1" d="M304.41,111.36s-1.63,14.69,5,21.36H284.89c-6.67-6.67-5-21.36-5-21.36h24.56Z"/><rect class="cls-2" x="290.1" y="106.58" width="4.03" height="6.75"/><rect class="cls-1" x="329.07" y="108.37" width="28.82" height="5.45" rx="2.66" ry="2.66"/><rect class="cls-1" x="329.07" y="118.28" width="28.82" height="5.45" rx="2.66" ry="2.66"/><rect class="cls-2" x="177.75" y="114.34" width="55.37" height="77.09" rx="5.22" ry="5.22"/><rect class="cls-3" x="185.42" y="165.09" width="40.04" height="19.6" rx="2.61" ry="2.61"/><rect class="cls-1" x="196.66" y="153.18" width="8.67" height="8.67" rx="1.19" ry="1.19"/><rect class="cls-1" x="211.31" y="142.13" width="8.67" height="19.72" rx="1.19" ry="1.19"/><path class="cls-1" d="M211.31,235a0.5,0.5,0,0,1-.5-0.5V223.13a0.5,0.5,0,0,1,.5-0.5h21.2v-21.2a0.5,0.5,0,0,1,.5-0.5h21.2v-21.2a0.5,0.5,0,0,1,.5-0.5h21.2V158a0.5,0.5,0,0,1,.5-0.5h21.7a0.5,0.5,0,0,1,0,1h-21.2v21.2a0.5,0.5,0,0,1-.5.5h-21.2v21.2a0.5,0.5,0,0,1-.5.5h-21.2v21.2a0.5,0.5,0,0,1-.5.5h-21.2v10.91A0.5,0.5,0,0,1,211.31,235Z"/><rect class="cls-2" x="216.85" y="227.31" width="10.41" height="10.41"/><rect class="cls-2" x="238.66" y="207.2" width="10.41" height="30.52"/><rect class="cls-2" x="260.47" y="185.43" width="10.41" height="52.29"/><rect class="cls-2" x="282.07" y="163.26" width="10.41" height="74.46"/><path class="cls-1" d="M309.92,246.93H177.64a0.5,0.5,0,0,1,0-1H309.92A0.5,0.5,0,1,1,309.92,246.93Z"/><path class="cls-3" d="M444.41,160.69a48.88,48.88,0,1,0,48.87,48.87A48.88,48.88,0,0,0,444.41,160.69Zm0,81.17a32.29,32.29,0,1,1,32.29-32.3A32.29,32.29,0,0,1,444.41,241.86Z"/><circle class="cls-3" cx="444.41" cy="209.57" r="14.42"/><path class="cls-1" d="M444.41,174a35.54,35.54,0,1,1-35.54,35.54H398.3a46.11,46.11,0,1,0,46.11-46.11V174h0Z"/><path class="cls-2" d="M47.31,347.25H47.2s-0.74-.16-2-0.51a0.5,0.5,0,0,1,.28-1c1.19,0.34,1.89.5,1.9,0.5A0.5,0.5,0,0,1,47.31,347.25Z"/><path class="cls-2" d="M345.44,388.55a0.5,0.5,0,0,1,0-1q2,0,4-.07a0.51,0.51,0,0,1,.52.48,0.5,0.5,0,0,1-.48.52q-2,.06-4,0.07h0Zm-4,0h0q-2,0-4-.14a0.5,0.5,0,0,1-.48-0.52,0.49,0.49,0,0,1,.52-0.48q2,0.09,4,.13A0.5,0.5,0,0,1,341.46,388.51Zm12-.22a0.5,0.5,0,0,1,0-1q2-.12,4-0.3a0.51,0.51,0,0,1,.54.45,0.5,0.5,0,0,1-.45.54q-2,.18-4,0.3h0Zm-19.92-.14h0q-2-.14-4-0.33a0.5,0.5,0,0,1-.45-0.54,0.51,0.51,0,0,1,.54-0.45q2,0.19,4,.33A0.5,0.5,0,0,1,333.49,388.15Zm27.86-.57a0.5,0.5,0,0,1-.06-1q2-.24,3.93-0.54a0.5,0.5,0,0,1,.15,1q-2,.3-4,0.54h-0.06Zm-35.8-.17H325.5q-2-.23-4-0.51a0.5,0.5,0,0,1-.43-0.56,0.51,0.51,0,0,1,.56-0.43q2,0.27,3.94.5A0.5,0.5,0,0,1,325.55,387.4Zm43.68-1a0.5,0.5,0,0,1-.09-1q2-.36,3.89-0.79a0.5,0.5,0,0,1,.21,1q-1.95.43-3.92,0.79h-0.09Zm-51.57-.07h-0.08q-2-.31-3.94-0.67a0.5,0.5,0,1,1,.18-1q2,0.35,3.92.67A0.5,0.5,0,0,1,317.66,386.31Zm-7.85-1.41h-0.1q-1.95-.39-3.91-0.82a0.5,0.5,0,0,1,.21-1q2,0.43,3.89.82A0.5,0.5,0,0,1,309.81,384.9Zm67.21-.24a0.5,0.5,0,0,1-.12-1c1.28-.33,2.57-0.68,3.83-1.05a0.5,0.5,0,0,1,.28,1c-1.28.38-2.58,0.73-3.87,1.06Zm-75-1.47H301.9q-1.94-.46-3.88-1a0.5,0.5,0,0,1,.25-1q1.94,0.5,3.86,1A0.5,0.5,0,0,1,302,383.19Zm82.66-.78a0.5,0.5,0,0,1-.16-1c1.24-.41,2.5-0.86,3.74-1.33a0.5,0.5,0,0,1,.35.94c-1.25.47-2.52,0.92-3.78,1.34Zm-90.38-1.2-0.13,0q-1.92-.53-3.84-1.09a0.5,0.5,0,1,1,.28-1q1.92,0.56,3.83,1.08A0.5,0.5,0,0,1,294.3,381.21Zm97.85-1.61a0.5,0.5,0,0,1-.19-1c1.22-.51,2.44-1.05,3.63-1.6a0.5,0.5,0,0,1,.42.91c-1.2.56-2.43,1.1-3.67,1.62A0.5,0.5,0,0,1,392.14,379.61ZM286.64,379l-0.15,0q-1.9-.59-3.81-1.21a0.5,0.5,0,1,1,.31-1l3.79,1.2A0.5,0.5,0,0,1,286.64,379Zm-7.58-2.46-0.16,0-3.77-1.32a0.5,0.5,0,1,1,.34-0.94q1.88,0.67,3.76,1.31A0.5,0.5,0,0,1,279.05,376.53Zm120.32-.27a0.5,0.5,0,0,1-.23-0.95c1.17-.6,2.35-1.23,3.49-1.87a0.5,0.5,0,1,1,.49.87c-1.16.65-2.34,1.29-3.53,1.89A0.5,0.5,0,0,1,399.37,376.25Zm-127.83-2.4a0.5,0.5,0,0,1-.17,0l-3.74-1.42a0.5,0.5,0,1,1,.36-0.93q1.86,0.72,3.72,1.41A0.5,0.5,0,0,1,271.54,373.85Zm134.78-1.5a0.5,0.5,0,0,1-.26-0.93c1.12-.69,2.24-1.41,3.34-2.14a0.5,0.5,0,0,1,.56.83c-1.1.74-2.24,1.46-3.37,2.16A0.49,0.49,0,0,1,406.32,372.35ZM264.1,371a0.5,0.5,0,0,1-.19,0l-3.7-1.51a0.5,0.5,0,1,1,.38-0.92l3.68,1.51A0.5,0.5,0,0,1,264.1,371Zm148.84-3.05a0.5,0.5,0,0,1-.29-0.9c1.07-.77,2.13-1.58,3.16-2.39a0.5,0.5,0,0,1,.62.79c-1,.82-2.12,1.63-3.19,2.41A0.5,0.5,0,0,1,412.94,367.92Zm-156.2,0a0.49,0.49,0,0,1-.2,0l-3.66-1.6a0.5,0.5,0,1,1,.41-0.91l3.65,1.59A0.5,0.5,0,0,1,256.74,367.91Zm-7.29-3.24a0.51,0.51,0,0,1-.21,0L245.62,363A0.5,0.5,0,1,1,246,362l3.61,1.68A0.5,0.5,0,0,1,249.45,364.68ZM419.2,363a0.5,0.5,0,0,1-.32-0.88c1-.85,2-1.74,3-2.62a0.5,0.5,0,1,1,.68.74c-1,.9-2,1.79-3,2.65A0.5,0.5,0,0,1,419.2,363Zm-177-1.72a0.5,0.5,0,0,1-.22,0l-3.58-1.76a0.5,0.5,0,1,1,.45-0.9l3.58,1.75A0.5,0.5,0,0,1,242.24,361.28Zm-7.14-3.55a0.5,0.5,0,0,1-.23-0.05l-3.55-1.83a0.5,0.5,0,0,1,.46-0.89l3.54,1.83A0.5,0.5,0,0,1,235.1,357.73Zm190-.12a0.5,0.5,0,0,1-.35-0.86l1.22-1.23q0.79-.8,1.54-1.62a0.5,0.5,0,0,1,.73.68q-0.76.82-1.56,1.64l-1.24,1.24A0.5,0.5,0,0,1,425.08,357.61ZM228,354a0.5,0.5,0,0,1-.24-0.06l-3.51-1.9a0.5,0.5,0,0,1,.48-0.88l3.5,1.89A0.5,0.5,0,0,1,228,354Zm202.45-2.28a0.5,0.5,0,0,1-.38-0.82c0.84-1,1.67-2.06,2.45-3.11a0.5,0.5,0,1,1,.8.6c-0.79,1.06-1.63,2.13-2.48,3.15A0.5,0.5,0,0,1,430.48,351.76ZM221,350.21a0.5,0.5,0,0,1-.24-0.06l-3.48-2a0.5,0.5,0,0,1,.5-0.87l3.47,2A0.5,0.5,0,0,1,221,350.21Zm-6.93-4a0.49,0.49,0,0,1-.25-0.07l-3.44-2a0.5,0.5,0,1,1,.51-0.86l3.43,2A0.5,0.5,0,0,1,214.11,346.26ZM41.59,345.5a0.5,0.5,0,0,1-.17,0c-1.26-.46-2.52-1-3.74-1.49a0.5,0.5,0,1,1,.4-0.92c1.2,0.52,2.44,1,3.68,1.47A0.5,0.5,0,0,1,41.59,345.5Zm393.66-.13a0.5,0.5,0,0,1-.42-0.78c0.73-1.09,1.44-2.22,2.12-3.35a0.5,0.5,0,1,1,.86.51c-0.68,1.14-1.41,2.29-2.14,3.39A0.5,0.5,0,0,1,435.25,345.37Zm-401-3.06a0.49,0.49,0,0,1-.23-0.06c-1.2-.62-2.38-1.28-3.51-2a0.5,0.5,0,0,1,.52-0.85c1.11,0.67,2.27,1.32,3.45,1.93A0.5,0.5,0,0,1,34.27,342.31Zm173-.13a0.5,0.5,0,0,1-.26-0.07l-3.4-2.08a0.5,0.5,0,0,1,.53-0.85l3.4,2.08A0.5,0.5,0,0,1,207.25,342.19Zm232.08-3.65a0.5,0.5,0,0,1-.44-0.74c0.62-1.16,1.21-2.35,1.78-3.54a0.5,0.5,0,0,1,.9.43c-0.57,1.21-1.18,2.41-1.8,3.58A0.5,0.5,0,0,1,439.34,338.53Zm-411.87-.38a0.5,0.5,0,0,1-.29-0.09c-1.1-.8-2.17-1.64-3.16-2.51a0.5,0.5,0,1,1,.66-0.75c1,0.84,2,1.67,3.09,2.45A0.5,0.5,0,0,1,27.47,338.15Zm173-.16a0.5,0.5,0,0,1-.27-0.08l-3.37-2.14a0.5,0.5,0,1,1,.54-0.84l3.36,2.13A0.5,0.5,0,0,1,200.47,338Zm-6.72-4.3a0.5,0.5,0,0,1-.27-0.08l-3.34-2.19a0.5,0.5,0,0,1,.55-0.83l3.33,2.19A0.5,0.5,0,0,1,193.75,333.7Zm-172.28-.79a0.5,0.5,0,0,1-.36-0.16,35.94,35.94,0,0,1-2.6-3.1,0.5,0.5,0,0,1,.8-0.6,34.83,34.83,0,0,0,2.53,3A0.5,0.5,0,0,1,21.47,332.92Zm421.28-1.59a0.5,0.5,0,0,1-.46-0.69c0.51-1.21,1-2.45,1.46-3.69a0.5,0.5,0,0,1,.94.35c-0.46,1.26-1,2.51-1.47,3.73A0.5,0.5,0,0,1,442.75,331.33Zm-255.66-2a0.5,0.5,0,0,1-.28-0.08l-3.3-2.24a0.5,0.5,0,0,1,.56-0.83l3.3,2.24A0.5,0.5,0,0,1,187.1,329.3ZM16.73,326.53a0.5,0.5,0,0,1-.44-0.25,31.47,31.47,0,0,1-1.77-3.64,0.5,0.5,0,1,1,.93-0.38,30.35,30.35,0,0,0,1.72,3.52A0.5,0.5,0,0,1,16.73,326.53Zm163.79-1.73a0.49,0.49,0,0,1-.28-0.09l-0.68-.47-2.6-1.79a0.5,0.5,0,0,1,.56-0.83l2.61,1.8,0.68,0.47A0.5,0.5,0,0,1,180.51,324.8Zm265-.95-0.15,0a0.5,0.5,0,0,1-.32-0.63c0.4-1.24.79-2.52,1.14-3.8a0.5,0.5,0,1,1,1,.27c-0.36,1.29-.75,2.59-1.16,3.84A0.5,0.5,0,0,1,445.52,323.85ZM173.93,320.3a0.5,0.5,0,0,1-.28-0.08l-3.32-2.2a0.5,0.5,0,0,1,.55-0.84l3.33,2.2A0.5,0.5,0,0,1,173.93,320.3ZM13.72,319.18a0.5,0.5,0,0,1-.48-0.37,31.83,31.83,0,0,1-.77-4,0.5,0.5,0,1,1,1-.13,30.72,30.72,0,0,0,.75,3.84,0.5,0.5,0,0,1-.36.61Zm433.95-3h-0.12a0.5,0.5,0,0,1-.37-0.6c0.3-1.27.59-2.57,0.86-3.88a0.5,0.5,0,1,1,1,.2c-0.27,1.31-.56,2.63-0.86,3.91A0.5,0.5,0,0,1,447.67,316.18Zm-280.42-.24a0.5,0.5,0,0,1-.27-0.08l-3.37-2.12a0.5,0.5,0,0,1,.53-0.85l3.38,2.13A0.5,0.5,0,0,1,167.26,315.94Zm-6.77-4.21a0.5,0.5,0,0,1-.26-0.07l-3.42-2a0.5,0.5,0,1,1,.51-0.86q1.71,1,3.43,2A0.5,0.5,0,0,1,160.49,311.73ZM12.69,311.3a0.5,0.5,0,0,1-.5-0.49v-0.38c0-1.13.05-2.3,0.16-3.47l0-.19a0.5,0.5,0,0,1,1,.1l0,0.19c-0.1,1.14-.16,2.28-0.16,3.38v0.36a0.5,0.5,0,0,1-.49.51h0Zm436.56-2.94h-0.08a0.5,0.5,0,0,1-.41-0.58q0.33-2,.59-3.93a0.49,0.49,0,0,1,.56-0.43,0.5,0.5,0,0,1,.43.56q-0.26,2-.59,4A0.5,0.5,0,0,1,449.26,308.36Zm-295.64-.68a0.5,0.5,0,0,1-.25-0.07q-1.74-1-3.47-2a0.5,0.5,0,1,1,.49-0.87q1.73,1,3.48,2A0.5,0.5,0,0,1,153.62,307.68Zm-7-3.88a0.5,0.5,0,0,1-.24-0.06q-1.77-1-3.52-1.87a0.5,0.5,0,0,1,.46-0.89q1.75,0.92,3.53,1.87A0.5,0.5,0,0,1,146.65,303.8ZM13.6,303.41l-0.13,0a0.5,0.5,0,0,1-.35-0.62A24.43,24.43,0,0,1,14.52,299a0.5,0.5,0,1,1,.91.42A23.52,23.52,0,0,0,14.08,303,0.5,0.5,0,0,1,13.6,303.41Zm436.72-3h-0.05a0.5,0.5,0,0,1-.45-0.55q0.2-2,.34-4a0.5,0.5,0,0,1,1,.07q-0.14,2-.35,4A0.5,0.5,0,0,1,450.31,300.45Zm-310.73-.34a0.5,0.5,0,0,1-.22-0.05q-1.79-.9-3.57-1.77a0.5,0.5,0,1,1,.44-0.9q1.78,0.87,3.58,1.77A0.5,0.5,0,0,1,139.58,300.11Zm-7.17-3.49a0.49,0.49,0,0,1-.21,0q-1.82-.85-3.62-1.66A0.5,0.5,0,1,1,129,294q1.8,0.81,3.63,1.66A0.5,0.5,0,0,1,132.41,296.62Zm-115.48-.41a0.5,0.5,0,0,1-.41-0.78,28.83,28.83,0,0,1,2.5-3.19,0.5,0.5,0,0,1,.74.67A27.68,27.68,0,0,0,17.35,296,0.5,0.5,0,0,1,16.93,296.21Zm108.2-2.85a0.5,0.5,0,0,1-.2,0q-1.85-.79-3.67-1.54a0.5,0.5,0,0,1,.38-0.93q1.83,0.75,3.68,1.55A0.5,0.5,0,0,1,125.14,293.36Zm325.75-.86h0a0.5,0.5,0,0,1-.48-0.52q0.09-2,.12-4a0.5,0.5,0,0,1,.5-0.49h0a0.5,0.5,0,0,1,.49.51q0,2-.12,4A0.5,0.5,0,0,1,450.89,292.5Zm-333.13-2.16a0.5,0.5,0,0,1-.18,0q-1.87-.73-3.72-1.41a0.5,0.5,0,1,1,.35-0.94q1.85,0.68,3.74,1.42A0.5,0.5,0,0,1,117.76,290.33Zm-95.52,0a0.5,0.5,0,0,1-.33-0.88,36.85,36.85,0,0,1,3.2-2.46,0.5,0.5,0,1,1,.57.82,35.8,35.8,0,0,0-3.11,2.4A0.5,0.5,0,0,1,22.24,290.29Zm88-2.71-0.16,0q-1.9-.66-3.77-1.27a0.5,0.5,0,0,1,.31-1q1.88,0.61,3.79,1.27A0.5,0.5,0,0,1,110.28,287.58Zm-81.49-1.81a0.5,0.5,0,0,1-.24-0.94c1.15-.64,2.36-1.24,3.61-1.79a0.5,0.5,0,0,1,.41.91c-1.22.54-2.4,1.13-3.53,1.75A0.5,0.5,0,0,1,28.79,285.77Zm73.91-.66-0.15,0q-1.93-.58-3.82-1.11a0.5,0.5,0,1,1,.27-1q1.9,0.53,3.84,1.12A0.5,0.5,0,0,1,102.7,285.11ZM451,284.52a0.5,0.5,0,0,1-.5-0.49q0-2-.1-4a0.5,0.5,0,0,1,.48-0.52,0.51,0.51,0,0,1,.52.48q0.07,1.94.1,4a0.5,0.5,0,0,1-.49.51h0ZM95,283l-0.12,0q-2-.5-3.86-0.94a0.5,0.5,0,1,1,.22-1q1.92,0.44,3.89.94A0.5,0.5,0,0,1,95,283Zm-59-.46a0.5,0.5,0,0,1-.17-1c1.24-.44,2.53-0.86,3.83-1.23a0.5,0.5,0,1,1,.27,1c-1.28.36-2.55,0.77-3.76,1.21Zm51.2-1.33h-0.1q-2-.4-3.9-0.74a0.5,0.5,0,1,1,.17-1q1.94,0.34,3.93.75A0.5,0.5,0,0,1,87.25,281.19Zm-43.54-.86a0.5,0.5,0,0,1-.11-1c1.28-.28,2.61-0.54,3.94-0.75a0.5,0.5,0,1,1,.16,1c-1.31.21-2.62,0.46-3.89,0.74H43.71Zm35.68-.52H79.32q-2-.29-3.94-0.52a0.5,0.5,0,0,1-.44-0.55,0.5,0.5,0,0,1,.55-0.44q2,0.23,4,.52A0.5,0.5,0,0,1,79.4,279.81ZM51.58,279a0.5,0.5,0,0,1-.06-1c1.3-.15,2.65-0.27,4-0.36a0.49,0.49,0,0,1,.53.47,0.5,0.5,0,0,1-.47.53c-1.33.09-2.66,0.21-3.95,0.35H51.58Zm19.9-.15h0c-1.32-.11-2.66-0.2-4-0.27a0.5,0.5,0,0,1-.47-0.52,0.49,0.49,0,0,1,.52-0.47c1.31,0.07,2.66.16,4,.27A0.5,0.5,0,0,1,71.48,278.88Zm-11.95-.38a0.5,0.5,0,0,1,0-1q2,0,4,0A0.5,0.5,0,0,1,64,278a0.52,0.52,0,0,1-.51.49q-2,0-4,0h0Zm391.18-1.94a0.5,0.5,0,0,1-.5-0.47q-0.13-2.08-.3-4a0.5,0.5,0,0,1,.45-0.54,0.51,0.51,0,0,1,.54.45c0.11,1.26.22,2.6,0.31,4a0.5,0.5,0,0,1-.47.53h0ZM450,268.61a0.5,0.5,0,0,1-.5-0.44c-0.17-1.45-.35-2.77-0.52-3.94a0.5,0.5,0,0,1,.42-0.57,0.51,0.51,0,0,1,.57.42c0.17,1.18.35,2.5,0.52,4a0.5,0.5,0,0,1-.44.56H450Z"/><path class="cls-2" d="M448.81,260.58a0.5,0.5,0,0,1-.49-0.41c-0.23-1.25-.38-1.93-0.38-1.94a0.5,0.5,0,0,1,1-.22s0.16,0.69.39,2a0.5,0.5,0,0,1-.4.58h-0.09Z"/><path class="cls-1" d="M107.36,48.07V68.49a9.26,9.26,0,0,0,9.25,9.26h3.64v7.5a2,2,0,0,0,3.37,1.39l8.89-8.89h21.6a9.26,9.26,0,0,0,9.26-9.26V48.07a9.26,9.26,0,0,0-9.26-9.26h-37.5A9.26,9.26,0,0,0,107.36,48.07Z"/><rect class="cls-3" x="117.02" y="49.64" width="36.7" height="4.65" rx="2.32" ry="2.32"/><rect class="cls-3" x="117.02" y="60.38" width="36.7" height="4.65" rx="2.32" ry="2.32"/><path class="cls-3" d="M396.52,44.62V65a9.26,9.26,0,0,1-9.25,9.26h-3.64v7.5a2,2,0,0,1-3.37,1.39l-8.89-8.89h-21.6A9.26,9.26,0,0,1,340.51,65V44.62a9.26,9.26,0,0,1,9.26-9.26h37.5A9.26,9.26,0,0,1,396.52,44.62Z"/><rect class="cls-1" x="350.16" y="46.19" width="36.7" height="4.65" rx="2.32" ry="2.32" transform="translate(737.02 97.02) rotate(180)"/><rect class="cls-1" x="350.16" y="56.93" width="36.7" height="4.65" rx="2.32" ry="2.32" transform="translate(737.02 118.5) rotate(-180)"/><path class="cls-3" d="M423.61,113h1.93a2.37,2.37,0,0,1,2.37,2.37v1.69a2.37,2.37,0,0,1-2.37,2.37h-1.93a2.37,2.37,0,0,1-2.37-2.37V115.4A2.38,2.38,0,0,1,423.61,113Z" transform="translate(94.7 -175.22) rotate(26.15)"/><path class="cls-1" d="M420.17,104.38h14.36a0,0,0,0,1,0,0v10.06a2.37,2.37,0,0,1-2.37,2.37h-9.61a2.37,2.37,0,0,1-2.37-2.37V104.38A0,0,0,0,1,420.17,104.38Z" transform="translate(92.49 -177.03) rotate(26.15)"/><path class="cls-3" d="M421.2,106l14.44,3.2a1,1,0,0,0,.44-2L421.64,104a1,1,0,0,0-.44,2"/><path class="cls-3" d="M419.18,110.08l15.67,3.48a1,1,0,0,0,.44-2l-15.67-3.48a1,1,0,0,0-.44,2"/><path class="cls-3" d="M418.77,114.55l14.06,3.12a1,1,0,0,0,.44-2l-14.06-3.12a1,1,0,0,0-.44,2"/><circle class="cls-1" cx="437.43" cy="90.06" r="18.77" transform="translate(163.79 443.02) rotate(-63.85)"/><path class="cls-3" d="M436.81,103.08a0.5,0.5,0,0,1,0-1c3.71-.29,6.93-3.85,7.89-7.13,0.8-2.72.14-5.13-1.81-6.62a5.27,5.27,0,0,0-3.57-1.25c0.3,2.82-1.18,5.75-2.85,6.65a1.92,1.92,0,0,1-2.4-.3c-1-1-.54-3.35,1.06-5.17a6.41,6.41,0,0,1,3-2,4.08,4.08,0,0,0-3.42-2.69c-2.4-.28-4.7,1.45-6.13,4.63a10.43,10.43,0,0,0,1.87,11.74,0.5,0.5,0,0,1-.68.73,11.47,11.47,0,0,1-2.1-12.88c1.62-3.59,4.31-5.53,7.16-5.21a5.08,5.08,0,0,1,4.29,3.5,6.25,6.25,0,0,1,4.36,1.44c2.3,1.75,3.09,4.55,2.17,7.69-1.23,4.18-5,7.56-8.77,7.85h0Zm1.49-15.81a5.61,5.61,0,0,0-2.45,1.65c-1.31,1.5-1.66,3.25-1.1,3.81a0.92,0.92,0,0,0,1.22.12C437.16,92.21,438.55,89.8,438.3,87.27Z"/><rect class="cls-3" x="80.38" y="111.15" width="4.33" height="4.18" rx="2.09" ry="2.09" transform="translate(-32.16 32.74) rotate(-18.85)"/><path class="cls-1" d="M76.58,105.35h9.3a0,0,0,0,1,0,0V111a2.37,2.37,0,0,1-2.37,2.37H79A2.37,2.37,0,0,1,76.58,111v-5.68A0,0,0,0,1,76.58,105.35Z" transform="translate(-30.98 32.11) rotate(-18.85)"/><path class="cls-3" d="M76.29,110.08l8.08-5.15a0.66,0.66,0,0,0-.71-1.11L75.58,109a0.66,0.66,0,0,0,.71,1.11"/><path class="cls-3" d="M77.25,112.89L86,107.3a0.66,0.66,0,0,0-.71-1.11l-8.78,5.59a0.66,0.66,0,0,0,.71,1.11"/><path class="cls-3" d="M79.11,115.12l7.87-5a0.66,0.66,0,0,0-.71-1.11l-7.87,5a0.66,0.66,0,0,0,.71,1.11"/><circle class="cls-1" cx="76.44" cy="95.35" r="12.16" transform="translate(-26.71 29.81) rotate(-18.85)"/><path class="cls-3" d="M77.75,103.91a7.61,7.61,0,0,1-7-5.06c-0.93-2.46-.57-4.66.95-5.87a3.48,3.48,0,0,1,3.64-.44A4.27,4.27,0,0,1,78,91.25a4.55,4.55,0,0,1,4.7,2.62c1.39,2.54,1.2,5.9-.44,7.81a0.5,0.5,0,0,1-.76-0.65c1.52-1.77,1.36-4.79.33-6.69a3.62,3.62,0,0,0-3.68-2.11,3.34,3.34,0,0,0-2,.88,4.74,4.74,0,0,1,1.65,4.42,1.41,1.41,0,0,1-1.4,1.08h0c-1.17,0-2-1.54-2.06-3a4.41,4.41,0,0,1,.4-2.22,2.48,2.48,0,0,0-2.45.39c-1.17.92-1.4,2.69-.64,4.73a6.57,6.57,0,0,0,6.07,4.41,0.49,0.49,0,0,1,.52.48,0.5,0.5,0,0,1-.48.52h0ZM75.62,94a3.51,3.51,0,0,0-.26,1.58c0.08,1.25.7,2.08,1.07,2.09h0a0.43,0.43,0,0,0,.44-0.38A3.84,3.84,0,0,0,75.62,94Z"/><path class="cls-3" d="M31.68,119l1.29-.17a11.07,11.07,0,0,0,9.64-9.24l0.18-1.24L43,109.59a11.07,11.07,0,0,0,9.64,9.24L53.9,119l-1.29.17A11.07,11.07,0,0,0,43,128.42l-0.18,1.24-0.18-1.24A11.07,11.07,0,0,0,33,119.18Z"/><path class="cls-3" d="M31.68,262.1l0.81-.11a7,7,0,0,0,6-5.8l0.11-.78,0.11,0.78a7,7,0,0,0,6,5.8l0.81,0.11-0.81.11a7,7,0,0,0-6,5.8l-0.11.78L38.54,268a7,7,0,0,0-6-5.8Z"/><path class="cls-1" d="M294.87,292.63l0.81-.11a7,7,0,0,0,6-5.8l0.11-.78,0.11,0.78a7,7,0,0,0,6,5.8l0.81,0.11-0.81.11a7,7,0,0,0-6,5.8l-0.11.78-0.11-.78a7,7,0,0,0-6-5.8Z"/><path class="cls-3" d="M388.57,148.19l1-.13a8.49,8.49,0,0,0,7.39-7.09l0.14-1,0.14,1a8.49,8.49,0,0,0,7.39,7.09l1,0.13-1,.13a8.49,8.49,0,0,0-7.39,7.09l-0.14,1-0.14-1a8.49,8.49,0,0,0-7.39-7.09Z"/><circle class="cls-1" cx="138.21" cy="105.28" r="2.76"/><circle class="cls-3" cx="157.88" cy="277.2" r="2.08"/><circle class="cls-1" cx="167.34" cy="291.78" r="4.81"/><circle class="cls-3" cx="306.44" cy="313.57" r="1.6"/><circle class="cls-1" cx="415.57" cy="155.4" r="2.4"/><circle class="cls-3" cx="391.05" cy="102.68" r="2.24"/><path class="cls-4" d="M153.19,392.3l-1.55,10-1.57,10.07c-3,2-7.82.13-7.82,0.13l0.55-13.12,0.29-7.08h10.1Z"/><path class="cls-2" d="M153.19,392.3l-1.55,10c-4.22-.54-7-1.64-8.84-2.92l0.29-7.08h10.1Z"/><path class="cls-1" d="M173.08,436.53H136.72s0-1.56.35-4.1c0.63-5,1.06-12.54,4.11-20.95a26.31,26.31,0,0,0,10.42.22,40.34,40.34,0,0,0,6.41,7.87s2.78,0.88,7.41,4.43S173.5,433.47,173.08,436.53Z"/><ellipse class="cls-2" cx="143.85" cy="421.31" rx="4.05" ry="2.56" transform="translate(-299.43 462.46) rotate(-76.45)"/><path class="cls-2" d="M153,424.41a0.5,0.5,0,0,1-.3-0.1c-4.82-3.6-7.26-10.76-7.36-11.06a0.5,0.5,0,0,1,.95-0.32c0,0.07,2.45,7.17,7,10.58A0.5,0.5,0,0,1,153,424.41Z"/><path class="cls-2" d="M169.06,421.93c-4.63-3.55-11.06-2.35-11.06-2.35-8.3,3.24-7.58,12.86-7.58,12.86H137.07c-0.32,2.54-.35,4.1-0.35,4.1h36.36C173.5,433.47,173.68,425.48,169.06,421.93Z"/><path class="cls-5" d="M168.76,331.73c-3.87,22-12.8,63.1-12.8,63.1a16.17,16.17,0,0,1-3.37,1.39,18.58,18.58,0,0,1-9.65.06,28.09,28.09,0,0,1-9.25-4.17c0.57-15,4.49-63.51,4.49-63.51s-19.42-17.09-31.28-29.74a93.56,93.56,0,0,1-6.46-7.51c-0.67-.9-1.31-1.84-1.88-2.79-7-11.36-7.44-25.14-.88-31.11,13.34-12.13,29.81,5.65,29.81,5.65s26.77,30.62,38.08,46.78c2.94,4.21,4.85,7.43,4.94,8.87C170.6,320.34,169.9,325.19,168.76,331.73Z"/><path class="cls-2" d="M106.89,298.85a93.56,93.56,0,0,1-6.46-7.51c-0.67-.9-1.31-1.84-1.88-2.79a5.23,5.23,0,0,0,2.44-.7c0.64-.64,1.12-4.16,1.12-4.16Z"/><path class="cls-4" d="M168.76,331.73a6.46,6.46,0,0,1-3.38,1.59c-4.62.62-9.09-4.24-10-10.86s2.16-12.47,6.79-13.09a6.25,6.25,0,0,1,3.37.5c2.94,4.21,4.85,7.43,4.94,8.87C170.6,320.34,169.9,325.19,168.76,331.73Z"/><path class="cls-4" d="M140.25,390.2H140.2a0.5,0.5,0,0,1-.45-0.55c1.52-14.89,6.41-58.71,6.86-62.7-22.16-16.22-45.45-43.7-45.69-44a0.5,0.5,0,0,1,.76-0.64c0.23,0.28,23.62,27.87,45.74,44a0.5,0.5,0,0,1,.2.46c-0.05.47-5.31,47.45-6.89,63A0.5,0.5,0,0,1,140.25,390.2Z"/><path class="cls-4" d="M147.76,393.15A21.06,21.06,0,0,1,135,388.55a0.5,0.5,0,0,1,.66-0.75c0.09,0.08,8.95,7.72,19.73,2.57a0.5,0.5,0,1,1,.43.9A18.57,18.57,0,0,1,147.76,393.15Z"/><polygon class="cls-4" points="44.42 399.15 42.36 404.14 38.41 413.76 31.5 412.61 34.73 402.77 36.79 396.51 44.42 399.15"/><path class="cls-2" d="M44.42,399.15l-2.06,5a26.19,26.19,0,0,1-7.63-1.37l2.06-6.27Z"/><path class="cls-1" d="M60.34,436.53H24s0-1.56.35-4.1a59.27,59.27,0,0,1,7.4-22.35,10.25,10.25,0,0,0,8.41,1.62s2.29,5.12,5.12,7.87a14.86,14.86,0,0,1,10,2.88C59.86,426,60.77,433.47,60.34,436.53Z"/><ellipse class="cls-2" cx="31.12" cy="421.31" rx="4.05" ry="2.56" transform="translate(-385.75 352.86) rotate(-76.45)"/><path class="cls-2" d="M40.27,424.41a0.5,0.5,0,0,1-.3-0.1c-4.85-3.62-6.32-11.87-6.38-12.21a0.5,0.5,0,0,1,.41-0.58,0.49,0.49,0,0,1,.58.41c0,0.08,1.47,8.2,6,11.58A0.5,0.5,0,0,1,40.27,424.41Z"/><path class="cls-2" d="M56.32,421.93c-4.63-3.55-11.06-2.35-11.06-2.35-8.3,3.24-7.58,12.86-7.58,12.86H24.33C24,435,24,436.53,24,436.53H60.34C60.77,433.47,60.95,425.48,56.32,421.93Z"/><path class="cls-5" d="M105.88,264s-4,21.31-4.89,23.87a10.71,10.71,0,0,1-4.08.78c-5.12,23.44-13.34,55.64-14,58.23-1,3.62-30.45,54.85-30.45,54.85-15,3.12-21.23-8.22-21.23-8.22,1-3,21.39-50.84,21.39-50.84s5.88-60,6.73-63.46S69,256.29,78.8,251.32c10.9-5.57,21.75.2,22.14,12.92Z"/><path class="cls-4" d="M66.88,283.5a14.58,14.58,0,0,1-4-.62,0.5,0.5,0,1,1,.28-1c3.5,1,6.34.69,8.44-.93,4.36-3.37,4.23-11.32,4.22-11.4a0.5,0.5,0,1,1,1,0c0,0.35.15,8.54-4.61,12.21A8.46,8.46,0,0,1,66.88,283.5Z"/><path class="cls-4" d="M39,392a0.5,0.5,0,0,1-.46-0.7l20-46.89,6.56-61.43a0.49,0.49,0,0,1,.55-0.44,0.5,0.5,0,0,1,.44.55l-6.57,61.5a0.5,0.5,0,0,1,0,.14l-20,47A0.5,0.5,0,0,1,39,392Z"/><ellipse class="cls-4" cx="72.76" cy="343.62" rx="12.08" ry="8.45" transform="translate(-278.4 336.15) rotate(-76.83)"/><path class="cls-4" d="M48.4,398.48c-8.41,0-14-6.63-14.06-6.71a0.5,0.5,0,0,1,.77-0.64c0.07,0.08,6.83,8.08,16.5,6a0.5,0.5,0,0,1,.21,1A16.3,16.3,0,0,1,48.4,398.48Z"/><path class="cls-4" d="M95.81,289.16H95.29a0.5,0.5,0,0,1-.49-0.51,0.52,0.52,0,0,1,.51-0.49,14,14,0,0,0,5.27-.67c0.95-3.15,4.05-20.37,4.08-20.55a0.5,0.5,0,0,1,1,.18c-0.13.75-3.3,18.34-4.19,20.91a0.5,0.5,0,0,1-.24.28C101.15,288.33,99.53,289.16,95.81,289.16Z"/><path class="cls-4" d="M96.91,289.13H96.82a0.5,0.5,0,0,1-.4-0.58l4.08-22.09a0.5,0.5,0,0,1,1,.18L97.4,288.72A0.5,0.5,0,0,1,96.91,289.13Z"/><path class="cls-4" d="M184.8,152.64s4.57-13.34,5.65-14.06c0.91-.61,18.22,0,23.63.18a1.53,1.53,0,0,1,1.47,1.67h0a1.53,1.53,0,0,1-1.24,1.38l-15.1,2.86a1.31,1.31,0,0,0-1,1.76h0a1.31,1.31,0,0,0,1.51.82l2.18-.48,0.5-.82a1.84,1.84,0,0,1,2.42-.67h0a1.84,1.84,0,0,1,.86,2.32l-1,2.43a7.21,7.21,0,0,1-5,4.33l-9.7,2.27Z"/><path class="cls-1" d="M191.73,161c-3.79,10.24-15.06,40.07-18.35,41.65-1.75.85-9.38-.69-18.13-3.22-11-3.17-23.84-7.89-28.86-11.32-3.75-2.55-5.51-7.21-5.19-11.77,0.43-6.41,5-12.63,13.92-12.59,11.86,0.06,31,10.17,31,10.17l13-19.31a7.17,7.17,0,0,1,9.85-2.06l0.14,0.1A7.12,7.12,0,0,1,191.73,161Z"/><path class="cls-2" d="M155.25,199.41c-11-3.17-23.84-7.89-28.86-11.32-3.75-2.55-5.51-7.21-5.19-11.77a22.31,22.31,0,0,1,10.56-6.2S143.36,187.43,155.25,199.41Z"/><path class="cls-2" d="M190.21,161.67h-0.1a0.5,0.5,0,0,1-.39-0.59,5.13,5.13,0,0,0-2.68-5.58,5.47,5.47,0,0,0-6.1.7,0.5,0.5,0,1,1-.69-0.72,6.5,6.5,0,0,1,7.24-.87c4.14,2.07,3.22,6.64,3.21,6.68A0.5,0.5,0,0,1,190.21,161.67Z"/><path class="cls-2" d="M172.06,190.6a0.5,0.5,0,0,1-.5-0.45,31.35,31.35,0,0,0-5.19-14.81,0.5,0.5,0,1,1,.79-0.61c0.18,0.23,4.43,5.83,5.39,15.32a0.5,0.5,0,0,1-.45.55h-0.05Z"/><path class="cls-2" d="M66,257.33l-1,6.65s13.14,6.25,35.66,5.77,29.33-4.49,29.33-4.49l-0.48-6.73A126.36,126.36,0,0,1,66,257.33Z"/><path class="cls-1" d="M93.86,261.33c-0.43.47-.8,8.57-0.4,8.89s12,0.56,12.66-.08,1-8.33.56-8.73S94.82,260.29,93.86,261.33Z"/><polygon class="cls-5" points="77.19 259.41 75.75 268.14 78.72 268.62 80.08 259.81 77.19 259.41"/><polygon class="cls-5" points="115.43 260.64 116.24 269.13 119.23 268.79 118.32 260.26 115.43 260.64"/><path class="cls-1" d="M139.77,243.7c0.48,2.57-5.62,15.38-6.41,16s-8.34,3.53-25,4.81-36.86-2.4-40.07-3.68-8.17-9.46-8.17-12.5c0-1.6.84-5.58,2.4-12.49,1.4-6.27,3.41-15,5.93-26.45,1.39-6.4,2.78-12.39,4.06-17.74,3.55-14.88,6.28-24.81,6.28-24.81,13.06-3.21,34.54-4.73,34.54-4.73l21.79,1.61c13.31,17.14-.32,52.56,0,59.13S139.29,241.14,139.77,243.7Z"/><path class="cls-2" d="M83.12,195.42s-4.34,27.65-20.6,40.44c1.4-6.27,3.41-15,5.93-26.45,1.39-6.4,2.78-12.39,4.06-17.74A39.71,39.71,0,0,1,83.12,195.42Z"/><path class="cls-2" d="M140.6,192.78h0a0.5,0.5,0,0,1-.45-0.54c1.11-11.61-.25-20.25-4.15-26.44a0.5,0.5,0,1,1,.85-0.53c4,6.38,5.43,15.24,4.3,27.07A0.5,0.5,0,0,1,140.6,192.78Z"/><path class="cls-2" d="M110.65,259.39a0.5,0.5,0,0,1-.44-0.73,44.82,44.82,0,0,0,4.63-24.25c-1.21-16.48-1.08-29,.37-37.26a36.69,36.69,0,0,0-1.85-19.26,0.5,0.5,0,0,1,.92-0.4,37.07,37.07,0,0,1,1.92,19.84c-1.44,8.16-1.55,20.62-.35,37a45.81,45.81,0,0,1-4.74,24.79A0.5,0.5,0,0,1,110.65,259.39Z"/><path class="cls-2" d="M110.61,159.85c-8.55,0-12.26,12.92-7.81,20.55,0,0,3.31-8.23,9.31-8.59s10.16,7.63,10.16,7.63S125.27,159.85,110.61,159.85Z"/><rect class="cls-1" x="24.13" y="158.87" width="18.17" height="33.41" rx="1.34" ry="1.34" transform="translate(-54.55 19.93) rotate(-18.7)"/><rect class="cls-2" x="21.5" y="159.76" width="18.17" height="33.41" rx="1.34" ry="1.34" transform="translate(-54.97 19.13) rotate(-18.7)"/><path class="cls-1" d="M83.25,200.84C78,209.37,64.94,220.5,58,226.07a8.67,8.67,0,0,1-10.07.63c-11.87-7.49-21.8-22.37-21.8-22.37,0.12-9.62,7.81-10,7.81-10l15.75,4.57s21.1-31.49,29.09-32C88.53,166.18,91.54,187.25,83.25,200.84Z"/><path class="cls-2" d="M68.54,217.6a0.5,0.5,0,0,1-.34-0.87c7.08-6.43,12-11.87,14.62-16.15,5.2-8.53,5.57-19.28,3.7-25.66-1-3.49-2.74-6-4.84-7a0.5,0.5,0,0,1,.44-0.9c2.39,1.17,4.25,3.8,5.36,7.63,2.35,8,.79,18.93-3.81,26.46C81,205.46,76,211,68.88,217.47A0.5,0.5,0,0,1,68.54,217.6Z"/><path class="cls-2" d="M29.2,207.11a0.5,0.5,0,0,1,0-1c2.66,0,4.66-.75,5.94-2.24,2.11-2.46,1.58-6.12,1.58-6.16a0.5,0.5,0,1,1,1-.15c0,0.17.6,4.16-1.81,7C34.42,206.23,32.17,207.11,29.2,207.11Z"/><path class="cls-2" d="M54.88,215.64l-0.14,0A0.5,0.5,0,0,1,54.4,215c3-10.09-3.61-14.88-3.89-15.07a0.5,0.5,0,0,1,.57-0.82c0.08,0.05,7.47,5.38,4.28,16.18A0.5,0.5,0,0,1,54.88,215.64Z"/><path class="cls-2" d="M34.17,196.57a7.18,7.18,0,0,1-5.26,7.24,12.7,12.7,0,0,1-2.76.52,14.71,14.71,0,0,1,.33-3,8.44,8.44,0,0,1,5.16-6.39,7.77,7.77,0,0,1,2.32-.58A10.3,10.3,0,0,1,34.17,196.57Z"/><path class="cls-4" d="M34.17,196.57a7.18,7.18,0,0,1-5.26,7.24l-2.43-2.49-3.39-3.49,3.73-6.07,4.83,3.16Z"/><path class="cls-4" d="M16.76,172.92l13.77-5.37a1.41,1.41,0,0,1,1.81.75h0a1.41,1.41,0,0,1-.53,1.75l-10.15,6.4,0.48,1,11-5.08A1.41,1.41,0,0,1,35,173h0a1.41,1.41,0,0,1-.44,1.78l-10.37,7.35,0.6,0.9,9.78-4.86a1.32,1.32,0,0,1,1.72.51h0a1.32,1.32,0,0,1-.32,1.7l-9,7.1,0.66,1L34,183.83a1.32,1.32,0,0,1,1.85.28h0a1.32,1.32,0,0,1,0,1.5l-5.43,8.3a7.16,7.16,0,0,1-4,3l-3.32.95a21.14,21.14,0,0,1-8.65-22.18A3.76,3.76,0,0,1,16.76,172.92Z"/><path class="cls-2" d="M28.28,195.41l-0.14,0c-2.48-.72-2.73-1.82-2.79-3.07,0-.87-0.07-1.55-1.78-2.19-2.79-1-2.72-2.61-2.67-3.88a2.29,2.29,0,0,0-1.32-2.64,3,3,0,0,1-1.68-3.54c0.1-.92.12-1.42-0.55-1.85a3.07,3.07,0,0,1-1.13-4.12,0.5,0.5,0,0,1,.88.47,2.08,2.08,0,0,0,.79,2.81,2.54,2.54,0,0,1,1,2.79c-0.11,1-.19,1.82,1.16,2.55a3.25,3.25,0,0,1,1.84,3.56c-0.05,1.23-.09,2.11,2,2.9,2.33,0.87,2.38,2.1,2.42,3.08s0.07,1.58,2.07,2.15A0.5,0.5,0,0,1,28.28,195.41Z"/><path class="cls-4" d="M115.37,149.67v13.7a3.26,3.26,0,0,1-3.61,3,5.74,5.74,0,0,1-4.73-3l1.64-11.64,0.28-2h6.41Z"/><path class="cls-2" d="M115.37,149.67v7.47a7.83,7.83,0,0,1-6.69-5.49l0.28-2h6.41Z"/><path class="cls-4" d="M106.12,137.78s0.16,9.45,1.2,11.78,11.38,5.37,13.7,4.17,4.49-17.55,2.8-23.4S105.56,125.92,106.12,137.78Z"/><path class="cls-2" d="M130.72,131.29c-1-3.12,2.64-13.06-5.45-13.86-5.56-.55-13.06,4.12-17.2,7.1,4.43-4.83,3.52-9.72.05-8C104,118.63,105,126.88,105,126.88c-1.44-6-8.41-9.62-9-5.85-0.37,2.51,3.64,4.49,6.35,5.53-2.74-.1-6.75.51-7.47,4.81-1.12,6.65,6.65,11.38,10.82,13.3l2.8,0.08L108,141.22s4.41,0.16,3.61-5.93c0,0,17.39,9.29,23.88-1.2C135.45,134.09,131.76,134.41,130.72,131.29Z"/><path class="cls-4" d="M107.4,143.79s-2.72-6.81-8.49-4.57-1,14.66,8.65,7.53Z"/><path class="cls-2" d="M105.63,146.33a0.5,0.5,0,0,1-.46-0.29s-2-4.37-5.76-4.75a0.5,0.5,0,0,1-.45-0.55,0.51,0.51,0,0,1,.55-0.45c4.32,0.43,6.48,5.13,6.57,5.33a0.5,0.5,0,0,1-.25.66A0.49,0.49,0,0,1,105.63,146.33Z"/><path class="cls-2" d="M102.17,145.73a0.5,0.5,0,0,1-.5-0.46,6.06,6.06,0,0,1,.86-3.17,0.5,0.5,0,1,1,.87.49,5.19,5.19,0,0,0-.73,2.6,0.5,0.5,0,0,1-.46.53h0Z"/><path class="cls-2" d="M111.68,140.24s1.36-2.79,3.48-1.74a0.69,0.69,0,0,1,.61-0.65c0.55,0,.62,1.71.62,1.71A12,12,0,0,0,111.68,140.24Z"/><path class="cls-2" d="M123.58,141.5s-0.19-2.84-1.82-2a0.65,0.65,0,0,0-.4-0.58c-0.62-.1-0.73,1.53-0.73,1.53A5,5,0,0,1,123.58,141.5Z"/><ellipse class="cls-2" cx="114.69" cy="143.51" rx="1.44" ry="1.17" transform="translate(-31.71 254.48) rotate(-88.53)"/><circle class="cls-6" cx="114.96" cy="143" r="0.31" transform="translate(-30.94 254.26) rotate(-88.53)"/><ellipse class="cls-2" cx="121.57" cy="143.69" rx="1.44" ry="1.17" transform="translate(-25.19 261.53) rotate(-88.53)"/><circle class="cls-6" cx="121.84" cy="143.18" r="0.31" transform="translate(-24.42 261.31) rotate(-88.53)"/><path class="cls-2" d="M118.64,148.61a3,3,0,0,1-.78-0.1,0.5,0.5,0,0,1,.27-1s1.15,0.3,1.44-.4a0.23,0.23,0,0,0,0-.17,1.83,1.83,0,0,0-1.12-.34,0.5,0.5,0,0,1-.48-0.51L118,143.3a0.5,0.5,0,0,1,.5-0.49h0a0.5,0.5,0,0,1,.49.51l0,2.36a2.1,2.1,0,0,1,1.44.75,1.13,1.13,0,0,1,.06,1.1A1.87,1.87,0,0,1,118.64,148.61Z"/><path class="cls-6" d="M118.76,151.12s-3.1,2-5.08-1.8Z"/><path class="cls-4" d="M348.52,400c-0.38,5.64-.85,11-0.85,11l-6.56-.9c-0.13-3.76-.58-8.32-1-12.28-0.62-5.12-1.26-9.23-1.26-9.23,0-7.83,9.83-4.58,10.15-.6C349.12,389.87,348.85,395,348.52,400Z"/><path class="cls-2" d="M349,388c0.15,1.87-.12,7-0.44,12-4.29-.24-6.9-1.22-8.45-2.15-0.62-5.12-1.26-9.23-1.26-9.23C338.86,380.77,348.64,384,349,388Z"/><path class="cls-2" d="M349.38,406a23.58,23.58,0,0,0-10,.6s-1.52,13-11.78,18.39c-8.2,4.32-7.09,11.54-7.09,11.54h19.54c4.42-3.7,5.9-9.74,5.9-9.74,0.3,3.27.29,7.67,0.26,9.74H352A148,148,0,0,0,349.38,406Z"/><path class="cls-1" d="M372.94,394c-17,6.73-37.35.32-37.35,0.32s1.92-29.64,1-42.79-5.61-50.32-6.09-61.85,1.23-34.25,13.14-36.86c6.57-1.44,16.83.64,18.42,19.39,0.51,6,.94,13.37,1.4,21.35,0.19,3.29.38,6.67,0.6,10.11,0.88,14.3,2,29.36,3.93,41.14C371.5,366.3,372.94,394,372.94,394Z"/><path class="cls-2" d="M364,303.69c-5.41-3.94-5.73-14.14-5.73-14.14,0.41,3.3,3.34,4,5.13,4C363.64,296.87,363.83,300.25,364,303.69Z"/><path class="cls-2" d="M332.46,289h-0.17a0.5,0.5,0,0,1-.44-0.55,0.52,0.52,0,0,1,.55-0.45,2.82,2.82,0,0,0,2.06-.88c1-1,2.17-3.22,1.9-8.33a0.5,0.5,0,0,1,.47-0.53,0.49,0.49,0,0,1,.53.47c0.23,4.44-.52,7.51-2.23,9.13A3.92,3.92,0,0,1,332.46,289Z"/><path class="cls-2" d="M355.79,393.52a92.73,92.73,0,0,1-17.9-1.89,0.5,0.5,0,1,1,.21-1c0.2,0,20.43,4.4,32.64-.46a0.5,0.5,0,1,1,.37.93C366.57,392.94,361,393.52,355.79,393.52Z"/><path class="cls-2" d="M364.77,389.72h0a0.5,0.5,0,0,1-.5-0.5c0.13-13.24-1.8-26.55-3.49-38.29-0.48-3.3-.93-6.42-1.31-9.4-1.75-13.49-2.24-37.63-2.25-37.87a0.5,0.5,0,0,1,.49-0.51,0.48,0.48,0,0,1,.51.49c0,0.24.5,24.33,2.24,37.77,0.38,3,.83,6.08,1.31,9.38,1.7,11.78,3.63,25.13,3.5,38.44A0.5,0.5,0,0,1,364.77,389.72Z"/><ellipse class="cls-3" cx="345.4" cy="338.76" rx="6.88" ry="10.77" transform="translate(-11.85 12.52) rotate(-2.04)"/><path class="cls-4" d="M427.18,410.33l-6.61.37c-0.92-4-2.42-8.92-3.73-12.94-1.43-4.39-2.64-7.73-2.64-7.73-1.44-7.69,8.78-6.37,9.86-2.52a52.35,52.35,0,0,1,1,5.58C426.08,400,427.18,410.33,427.18,410.33Z"/><path class="cls-2" d="M425.06,393.08a17.48,17.48,0,0,1-8.21,4.67c-1.43-4.39-2.64-7.73-2.64-7.73-1.44-7.69,8.78-6.37,9.86-2.52A52.35,52.35,0,0,1,425.06,393.08Z"/><path class="cls-2" d="M428.27,406a23.58,23.58,0,0,0-10,.6s-1.52,13-11.78,18.39c-8.2,4.32-7.09,11.54-7.09,11.54H419c4.42-3.7,5.9-9.74,5.9-9.74,0.3,3.27.29,7.67,0.26,9.74h5.79A148,148,0,0,0,428.27,406Z"/><path class="cls-1" d="M433.51,386.17a54.34,54.34,0,0,1-36.37,5.53c-3.85-20.51-23.15-70.19-31-89.42a70,70,0,0,1-2.88-8.74c-1.19,0-3.57-.23-4.45-2.08-1.19-2.52-2-20.67-2-20.67l4.29-.41c0.71-8.56,3.37-15.36,8-17.69,8-4,21.63,1,26.12,16.18,3.54,12,14.11,38.3,22.6,62.18S433.51,386.17,433.51,386.17Z"/><path class="cls-2" d="M363.19,294c-1.33,0-3.85-.29-4.84-2.37-1.23-2.59-2.06-20.12-2.09-20.86a0.5,0.5,0,0,1,.48-0.52,0.49,0.49,0,0,1,.52.48c0.23,5,1,18.49,2,20.48,0.8,1.68,3.14,1.82,4.17,1.79l-2-22.2a0.5,0.5,0,0,1,.45-0.54,0.51,0.51,0,0,1,.54.45l2.07,22.72a0.5,0.5,0,0,1-.44.54A7.44,7.44,0,0,1,363.19,294Z"/><ellipse class="cls-3" cx="398.1" cy="338.52" rx="7.45" ry="11.84" transform="translate(-71.85 109.98) rotate(-14.44)"/><path class="cls-2" d="M394.94,290a5.67,5.67,0,0,1-2.85-.72c-3.37-1.92-3.77-6.9-3.78-7.11a0.5,0.5,0,0,1,.46-0.53,0.51,0.51,0,0,1,.54.46s0.38,4.67,3.28,6.32c1.69,1,4,.75,6.73-0.64a0.5,0.5,0,0,1,.45.89A11,11,0,0,1,394.94,290Z"/><path class="cls-2" d="M427.07,381.87a0.5,0.5,0,0,1-.49-0.41c-6.13-32.91-28.24-90.2-28.46-90.78a0.5,0.5,0,0,1,.93-0.36c0.22,0.58,22.36,58,28.51,91a0.5,0.5,0,0,1-.4.58h-0.09Z"/><path class="cls-2" d="M399.24,389.4a0.48,0.48,0,0,1-.52-0.5,0.5,0.5,0,0,1,.5-0.5h0c0.27,0,20.87-.06,30.71-5.84a0.5,0.5,0,1,1,.51.86C420.41,389.32,400.32,389.4,399.24,389.4Z"/><path class="cls-2" d="M332,181.49c-9.7,5.49-31.33,42.27-26.52,51.64S324,244.22,338.17,223C355.31,197.4,346,173.57,332,181.49Z"/><path class="cls-4" d="M330.91,265.38s-1.8,9.62-1.68,12.5,19.59,5.89,34.86,5.89,35.22-6.25,35.22-9.25-1.8-10.94-1.8-10.94Z"/><path class="cls-5" d="M338.25,268.33c-0.91.08-1,2.64-1.38,5.17s-0.6,4.39.54,4.57,1.32-3.49,1.62-5S339.69,268.21,338.25,268.33Z"/><path class="cls-5" d="M351.32,269.95c-0.89.19-.61,2.75-0.71,5.3s0,4.43,1.12,4.46,0.86-3.63,1-5.15S352.73,269.64,351.32,269.95Z"/><path class="cls-5" d="M377.9,269.06c-0.86.29-.31,2.8-0.13,5.35s0.45,4.41,1.6,4.31,0.47-3.7.4-5.23S379.27,268.6,377.9,269.06Z"/><path class="cls-5" d="M365.48,270.27c-0.88.22-.53,2.76-0.55,5.32S365,280,366.19,280s0.75-3.65.81-5.18S366.88,269.92,365.48,270.27Z"/><path class="cls-5" d="M389.34,266.49c-0.82.39,0,2.81,0.51,5.32s1,4.32,2.11,4.09,0-3.73-.23-5.24S390.65,265.87,389.34,266.49Z"/><path class="cls-5" d="M356.76,171.57c-10.58.64-24.76,9.92-24.76,9.92s-8.53,33.17-6.49,39.06,7.81,8.89,7.81,8.89-5,30.89-4.21,35.58,12.26,7.21,32.93,7.21,37.85-5.34,37.5-8.17c-5.53-44.47-8.41-51.92-11.38-87.5C388.17,176.56,372.94,170.59,356.76,171.57Z"/><path class="cls-4" d="M339.3,224.54a0.5,0.5,0,0,1-.14-1c0.13,0,12.65-3.73,30.94-.74a0.5,0.5,0,0,1,.41.57,0.5,0.5,0,0,1-.57.41c-18-2.95-30.37.67-30.49,0.71Z"/><path class="cls-4" d="M393,257a0.5,0.5,0,0,1-.5-0.46c-1-11-6.78-38.82-6.84-39.1a0.5,0.5,0,1,1,1-.21c0.06,0.28,5.87,28.13,6.86,39.22a0.5,0.5,0,0,1-.45.54h0Z"/><path class="cls-4" d="M331.12,228.48a0.5,0.5,0,0,1-.31-0.1,17.07,17.07,0,0,1-5.78-7.66c-1.37-4,1.68-19.11,4.48-31.14a0.5,0.5,0,0,1,1,.23c-3.92,16.81-5.52,27.67-4.51,30.58a16.07,16.07,0,0,0,5.45,7.2A0.5,0.5,0,0,1,331.12,228.48Z"/><path class="cls-5" d="M356.09,170.55c-5.29.6-11.84,6.55-9.68,16.41,0,0,3.67-5.89,7.81-5.77s6.61,6.73,6.61,6.73a17.93,17.93,0,0,0,4.81-10C366.25,171.94,362.56,169.82,356.09,170.55Z"/><path class="cls-4" d="M360.84,188.42h-0.11a0.5,0.5,0,0,1-.36-0.31c0-.06-2.4-6.3-6.16-6.41h-0.11c-3.77,0-7.23,5.48-7.26,5.54a0.5,0.5,0,0,1-.91-0.16c-1.11-5.08-.06-9.73,3-13.11a0.5,0.5,0,1,1,.74.67,13.17,13.17,0,0,0-2.95,11.06c1.29-1.74,4.23-5.07,7.56-5,3.61,0.1,6,4.52,6.76,6.32a17.38,17.38,0,0,0,4.15-9.17c0.25-2.47-.28-4.3-1.56-5.43a0.5,0.5,0,1,1,.66-0.75c1.54,1.35,2.18,3.47,1.9,6.28a18.26,18.26,0,0,1-5,10.34A0.5,0.5,0,0,1,360.84,188.42Z"/><path class="cls-4" d="M320.54,179.53s-1.12-9.29-.72-11.3,8-4.49,8-4.49l-0.21-11.21A1.55,1.55,0,0,1,329,151h0a1.55,1.55,0,0,1,1.66,1.3L333.84,172l3.37,0.88c1.23,3.88-3.12,6.73-8.33,10Z"/><path class="cls-4" d="M327.83,163.74c4.81,0,8,1.34,6.81,7.47s-7,6.19-8.59,4.81-1.5-4.57-1.5-4.57-4.83-.32-4.73-3.23S324.8,163.72,327.83,163.74Z"/><path class="cls-2" d="M328.7,173.89h-0.05a0.5,0.5,0,0,1-.45-0.55,7.21,7.21,0,0,0-.2-2.84,2.72,2.72,0,0,0-1.84-1.74l-1.25-.38a0.5,0.5,0,1,1,.29-1l1.25,0.38a3.71,3.71,0,0,1,2.51,2.4,8.14,8.14,0,0,1,.24,3.24A0.5,0.5,0,0,1,328.7,173.89Z"/><path class="cls-2" d="M331.75,171.89H331.7a0.5,0.5,0,0,1-.45-0.55,7.21,7.21,0,0,0-.2-2.84,2.71,2.71,0,0,0-1.84-1.74l-1.25-.38a0.5,0.5,0,1,1,.29-1l1.25,0.38a3.71,3.71,0,0,1,2.51,2.4,8.14,8.14,0,0,1,.24,3.24A0.5,0.5,0,0,1,331.75,171.89Z"/><path class="cls-2" d="M328.57,177.25a4.46,4.46,0,0,1-2.85-.86c-1.36-1.2-1.61-3.51-1.66-4.49a8.92,8.92,0,0,1-2.9-.87,0.5,0.5,0,1,1,.47-0.88,8.45,8.45,0,0,0,2.95.8,0.5,0.5,0,0,1,.47.51s0,3,1.33,4.18a4.55,4.55,0,0,0,4,.3c1.4-.48,3.19-1.71,3.77-4.83a0.51,0.51,0,0,1,.58-0.4,0.5,0.5,0,0,1,.4.58,6.78,6.78,0,0,1-4.43,5.59A6.6,6.6,0,0,1,328.57,177.25Z"/><path class="cls-4" d="M334.92,171c-1.49-.08-3.65,2.36-4.91,4a1.67,1.67,0,0,0,.34,2.38h0a1.67,1.67,0,0,0,1.76.13c1.19-.63,3.25-1.73,4.37-2.44C338.13,174,337.24,171.11,334.92,171Z"/><path class="cls-2" d="M331.34,178.18a2.18,2.18,0,0,1-1.72-3.51c1.31-1.68,3.2-3.76,4.75-4.12a0.5,0.5,0,1,1,.22,1c-1,.22-2.5,1.59-4.19,3.76a1.15,1.15,0,0,0-.24.88,1.18,1.18,0,0,0,1.71.88c0.82-.43,2.36-1.26,3.53-1.94a0.5,0.5,0,1,1,.5.86c-1.12.65-2.56,1.43-3.56,2A2.17,2.17,0,0,1,331.34,178.18Z"/><path class="cls-5" d="M331,207.81c-1.58,12.92-6,22.73-10.92,27.79s-10.82,5.38-14.8-1.18a17.88,17.88,0,0,1-1.87-4.51c-4.12-15,4.14-42.88,10.2-48.85a11.06,11.06,0,0,1,10.58-2.57C330.79,180.41,333.92,184.25,331,207.81Z"/><path class="cls-4" d="M322.86,232.72a0.5,0.5,0,0,1-.41-0.78c4-5.87,6.9-14.46,8.09-24.19,3-24.16-.63-27.08-6.45-28.79a0.5,0.5,0,0,1,.28-1c7.22,2.12,10,6.93,7.16,29.87-1.21,9.88-4.14,18.63-8.26,24.63A0.5,0.5,0,0,1,322.86,232.72Z"/><path class="cls-4" d="M320.34,231.73a20.39,20.39,0,0,1-.23,3.87c-5.11,5.19-10.82,5.38-14.8-1.18a17.88,17.88,0,0,1-1.87-4.51c0.5-6.21,3.79-11,7.94-11.15C316.07,218.58,320.08,224.4,320.34,231.73Z"/><path class="cls-2" d="M409.64,257.73l-0.64,4,1.24,1,1.64-1a1.36,1.36,0,0,1,1.48.07h0a1.36,1.36,0,0,1,.34,1.88l-1.83,3.42s-7.76,2-7.8,1.88-2.16-8.33-2.36-9.66S409.64,257.73,409.64,257.73Z"/><path class="cls-4" d="M397.86,254.21s-2.88,8.65-2.4,10,9.62,7.57,10.94,8.05c0.95,0.34,3.66-2.59,5.12-4.28a1.54,1.54,0,0,0-.12-2.14h0a1.55,1.55,0,0,0-1.86-.2l-2,1.2-3.31-3.43a30.69,30.69,0,0,0,.72-6.79C404.83,253.48,399.66,249.4,397.86,254.21Z"/><path class="cls-5" d="M428,235.3c-2.66,9.23-8.09,19.9-13.51,23.31-8.17,5.13-17.79-1.6-18.27-8.65s5.93-20,5.93-20S389,215.67,381.92,202s0.63-28.09,6.25-25.48c12.47,5.79,30.72,27.16,38.11,39.68,1.83,3.08,3,5.62,3.24,7.27C429.95,226.32,429.3,230.62,428,235.3Z"/><path class="cls-4" d="M399.3,257a0.5,0.5,0,0,1-.36-0.15,11.08,11.08,0,0,1-3.26-6.82c-0.45-6.58,4.84-17.92,5.83-20-1.79-2-13.55-15.2-20-27.74-5.31-10.24-2.4-20.48,1.35-24.47a0.5,0.5,0,1,1,.73.68c-3.55,3.78-6.27,13.52-1.19,23.33,6.94,13.41,20,27.63,20.11,27.78a0.5,0.5,0,0,1,.08.56c-0.06.13-6.35,12.94-5.88,19.77a10.08,10.08,0,0,0,3,6.19A0.5,0.5,0,0,1,399.3,257Z"/><path class="cls-4" d="M428,235.3c-4.09,0-7.4-4.31-7.43-9.62,0-4.6,2.43-8.46,5.75-9.44,1.83,3.08,3,5.62,3.24,7.27C429.95,226.32,429.3,230.62,428,235.3Z"/><path class="cls-4" d="M403.23,230.11a0.5,0.5,0,0,1-.33-0.88c0.21-.18,5.23-4.46,14.45-4.13a0.5,0.5,0,0,1,.48.52,0.48,0.48,0,0,1-.52.48c-8.82-.3-13.71,3.84-13.76,3.88A0.5,0.5,0,0,1,403.23,230.11Z"/><path class="cls-4" d="M360.12,174.82s-1.68,2.52-3.9,2.4-2.64-1.44-2.64-1.44l0.11-2.8,0.13-3.82,6.07-2.34,0.07,2.21Z"/><path class="cls-2" d="M359.94,169c-0.86,1.85-2.62,3.71-6.27,3.94l0.13-3.82,6.07-2.34Z"/><circle class="cls-2" cx="369.17" cy="142.29" r="7.81"/><path class="cls-4" d="M352.79,143.51c-8,1.89-7.45,17.79-4.21,23.44s12.86,3,15.14-5.65C366.37,151.32,364.45,140.75,352.79,143.51Z"/><path class="cls-2" d="M357.93,149a9.81,9.81,0,0,1,2.56,5.31,4.36,4.36,0,0,0,4.28,3.53h0s6.69-1.11,4.34-12.32c-1.39-6.64-11.36-10.76-19.05-3.37S357.93,149,357.93,149Z"/><path class="cls-4" d="M363.67,158.05s1.26-5.11,6-4,1.38,10.82-6.55,7.45Z"/><path class="cls-2" d="M364.77,160.21h-0.06a0.5,0.5,0,0,1-.44-0.55,5.28,5.28,0,0,1,5.21-4.57,0.48,0.48,0,0,1,.51.49,0.5,0.5,0,0,1-.49.51,4.23,4.23,0,0,0-4.24,3.69A0.5,0.5,0,0,1,364.77,160.21Z"/><path class="cls-2" d="M367.62,159.53a0.5,0.5,0,0,1-.5-0.49h0a3.76,3.76,0,0,0-1-2.14,0.5,0.5,0,1,1,.75-0.66,4.69,4.69,0,0,1,1.21,2.77,0.5,0.5,0,0,1-.49.51h0Z"/><path class="cls-2" d="M342.81,153.32a49.84,49.84,0,0,1,17.25.6s1.38-5.23,3.49-7.27c0,0-1.55-8-11.36-6.49C343.05,141.54,342.81,153.32,342.81,153.32Z"/><path class="cls-2" d="M358.51,156.8a4.7,4.7,0,0,0-3.57-2.68c-0.51-.1-0.76,1.54-0.76,1.54A11.27,11.27,0,0,1,358.51,156.8Z"/><path class="cls-2" d="M347.25,156.69a4.08,4.08,0,0,1,2.36-2.21c0.57-.14.52,1.51,0.52,1.51A4.74,4.74,0,0,0,347.25,156.69Z"/><ellipse class="cls-2" cx="355.34" cy="159.53" rx="1.36" ry="1.1" transform="translate(164.45 499.06) rotate(-84.83)"/><circle class="cls-6" cx="355.14" cy="159.03" r="0.29" transform="translate(164.77 498.41) rotate(-84.83)"/><ellipse class="cls-2" cx="348.89" cy="158.95" rx="1.36" ry="1.1" transform="matrix(0.09, -1, 1, 0.09, 159.16, 492.11)"/><circle class="cls-6" cx="348.69" cy="158.45" r="0.29" transform="translate(159.48 491.45) rotate(-84.83)"/><path class="cls-2" d="M351.44,163.92a1.91,1.91,0,0,1-2-1.25c-0.38-1.31,1.54-3.63,1.93-4.08a0.5,0.5,0,1,1,.76.65c-1,1.1-1.88,2.63-1.73,3.14s1.26,0.51,1.27.51a0.5,0.5,0,0,1,.15,1A2.72,2.72,0,0,1,351.44,163.92Z"/><path class="cls-6" d="M350.7,166.21s2.68,2.23,5-1.14Z"/></svg>